# xmcd CD database file
#
# Track frame offsets:
#	183
#	16718
#	33553
#	60380
#	81980
#	105328
#	140678
#	161718
#
# Disc length: 2459 seconds
#
# Revision: 1
# Processed by: cddbd v1.5.2PL0 Copyright (c) Steve Scherf et al.
# Submitted via: CDex 1.51
#
DISCID=5d099908
DTITLE=Tony Coe - Tony Hymas - Chris Lawrence - Les Sources Bleues
DYEAR=1991
DGENRE=Jazz
TTITLE0=Tangellen
TTITLE1=Rush
TTITLE2=Jardin de Sable
TTITLE3=Amaaph
TTITLE4=Mexican George
TTITLE5=Canterbury Song
TTITLE6=Camomille
TTITLE7=Cela
EXTD=YEAR: 1991
EXTT0=
EXTT1=
EXTT2=
EXTT3=
EXTT4=
EXTT5=
EXTT6=
EXTT7=
PLAYORDER=
